
<svg width="141" height="48" viewBox="0 0 141 48" fill="none" xmlns="http://www.w3.org/2000/svg">
<path d="M9.02064 0C17.163 0 25.3053 0 33.6943 0C33.6943 1.58013 33.6943 3.16026 33.6943 4.78827C36.6873 4.78827 39.6802 4.78827 42.7639 4.78827C42.7684 9.77146 42.7684 9.77146 42.7694 11.86C42.7696 12.338 42.7698 12.8159 42.7701 13.2939C42.7701 13.3538 42.7701 13.4137 42.7702 13.4754C42.7706 14.4393 42.7715 15.4032 42.7726 16.3671C42.7736 17.3581 42.7743 18.3491 42.7745 19.3402C42.7746 19.9505 42.7751 20.5608 42.776 21.1711C42.7766 21.591 42.7768 22.0109 42.7767 22.4308C42.7766 22.6722 42.7767 22.9135 42.7773 23.1549C42.7807 24.5406 42.7577 25.9239 42.5456 27.2967C42.5359 27.3615 42.5263 27.4264 42.5163 27.4932C42.4324 28.0419 42.3273 28.5837 42.2006 29.124C42.1766 29.2299 42.1766 29.2299 42.1521 29.3381C41.4939 32.1182 40.3218 34.8411 38.6112 37.1385C38.5333 37.2434 38.4565 37.349 38.3796 37.4546C37.989 37.9876 37.5718 38.4905 37.1306 38.9822C37.1042 39.0118 37.0779 39.0414 37.0507 39.072C36.3675 39.8374 35.6527 40.6134 34.8412 41.2434C34.6989 41.3556 34.5668 41.4752 34.4337 41.5981C32.635 43.2304 30.4091 44.5178 28.2352 45.5721C28.1529 45.6122 28.0707 45.6525 27.9886 45.6931C26.1438 46.6047 24.1612 47.3905 22.1519 47.8535C22.0447 47.88 21.9392 47.9132 21.8341 47.9472C21.3633 48.0636 20.9542 47.9694 20.4949 47.8405C20.4325 47.8233 20.3701 47.806 20.3059 47.7883C18.118 47.1695 16.0038 46.337 13.9823 45.2952C13.8994 45.2527 13.8164 45.2104 13.7333 45.1684C11.8504 44.2163 10.0736 43.0424 8.45731 41.6861C8.42275 41.6572 8.38818 41.6282 8.35257 41.5983C7.6788 41.0313 7.03563 40.4381 6.41174 39.8166C6.36395 39.7691 6.31615 39.7215 6.26692 39.6726C5.99021 39.3952 5.72575 39.1114 5.47168 38.8132C5.42161 38.7557 5.37152 38.6981 5.32139 38.6407C2.50422 35.3561 0.74674 31.2829 0.193555 27.0023C0.177497 26.8789 0.160494 26.7558 0.143191 26.6326C-0.0139213 25.4697 -0.000581921 24.3034 0.000882906 23.1327C0.00112859 22.8859 0.00104327 22.6392 0.00100067 22.3925C0.00097128 21.9661 0.00114654 21.5397 0.00146483 21.1133C0.00192472 20.4968 0.00206988 19.8803 0.00214045 19.2639C0.00226342 18.2634 0.00263702 17.263 0.00317107 16.2626C0.00368899 15.2913 0.00408668 14.3201 0.00432633 13.3489C0.00434143 13.2883 0.00435634 13.2277 0.00437189 13.1653C0.00448905 12.6914 0.00459907 12.2176 0.00470712 11.7437C0.00523753 9.42522 0.00637148 7.10675 0.00742078 4.78827C2.98178 4.78827 5.95615 4.78827 9.02064 4.78827C9.02064 3.20814 9.02064 1.62801 9.02064 0Z" fill="url(#paint0_linear_69_270)"/>
<path d="M11.2176 2.30963C14.1176 2.30963 17.0176 2.30963 20.0055 2.30963C20.0055 5.43271 20.0055 8.55579 20.0055 11.7735C19.5221 11.8665 19.0388 11.9594 18.5408 12.0552C16.9698 12.4548 15.5079 13.1165 14.2032 14.0831C14.1693 14.1082 14.1354 14.1332 14.1005 14.159C13.4225 14.6651 12.7645 15.2259 12.2316 15.8858C12.181 15.9463 12.1304 16.0068 12.0797 16.0673C9.9374 18.6553 9.02302 21.9288 9.33088 25.2592C9.40391 25.8872 9.56124 26.4947 9.75293 27.096C9.76504 27.1348 9.77715 27.1737 9.78962 27.2137C10.0916 28.1705 10.5309 29.0736 11.0646 29.9219C11.1612 30.0816 11.1612 30.0816 11.2176 30.2506C11.7325 29.9818 12.2248 29.6793 12.7189 29.3745C12.8868 29.271 13.0552 29.1684 13.2237 29.0657C13.6299 28.8181 14.0348 28.5685 14.4391 28.3177C14.9185 28.0204 15.3989 27.7248 15.8818 27.4331C16.1237 27.287 16.3645 27.1401 16.6015 26.986C16.64 26.9614 16.6784 26.9369 16.7181 26.9116C16.7875 26.8672 16.8565 26.8219 16.9246 26.7755C17.0165 26.7175 17.0165 26.7175 17.1888 26.6453C17.4735 26.7175 17.7338 26.8503 17.9973 26.9774C18.0426 26.999 18.0879 27.0207 18.1346 27.043C18.2316 27.0893 18.3286 27.1357 18.4255 27.1823C18.577 27.2549 18.7286 27.3272 18.8803 27.3994C19.2659 27.5829 19.6515 27.7665 20.0365 27.9513C20.2224 28.0404 20.4084 28.129 20.5947 28.217C20.6937 28.264 20.7924 28.3117 20.8911 28.3595C20.95 28.3872 21.0089 28.415 21.0696 28.4436C21.1202 28.4677 21.1707 28.4919 21.2228 28.5168C21.379 28.5676 21.4323 28.566 21.5828 28.5043C21.6896 28.4462 21.7946 28.3846 21.8983 28.321C21.9613 28.2826 22.0243 28.2441 22.0892 28.2045C22.1575 28.1624 22.2257 28.1204 22.294 28.0783C22.3641 28.0353 22.4342 27.9924 22.5043 27.9495C22.6866 27.838 22.8686 27.7261 23.0505 27.6141C23.1937 27.526 23.337 27.4381 23.4803 27.3502C23.7681 27.1737 24.0558 26.997 24.3433 26.8198C24.419 26.7732 24.419 26.7732 24.4961 26.7257C24.5964 26.663 24.6954 26.5982 24.7937 26.5327C25.0739 26.5496 25.3052 26.6575 25.5538 26.7787C25.5947 26.7982 25.6355 26.8177 25.6777 26.8378C25.8127 26.9023 25.9475 26.9675 26.0823 27.0326C26.178 27.0785 26.2738 27.1243 26.3695 27.17C26.5699 27.2659 26.7702 27.3619 26.9704 27.4581C27.2598 27.5971 27.5496 27.7351 27.8397 27.8728C27.8859 27.8947 27.9322 27.9167 27.9799 27.9393C28.1196 28.0056 28.2593 28.0719 28.399 28.1381C28.5854 28.2266 28.7718 28.315 28.9582 28.4035C29.0044 28.4254 29.0505 28.4474 29.0981 28.4699C29.3928 28.6099 29.6872 28.7505 29.9814 28.8914C30.1798 28.9863 30.3782 29.0809 30.5766 29.1755C30.6709 29.2206 30.7651 29.2657 30.8592 29.311C30.9893 29.3735 31.1195 29.4356 31.2498 29.4976C31.288 29.5161 31.3262 29.5346 31.3656 29.5536C31.5585 29.645 31.7361 29.7135 31.948 29.7436C32.0807 29.4811 32.2124 29.2181 32.3428 28.9544C32.3869 28.8659 32.432 28.7779 32.4774 28.69C32.8472 27.9405 33.0456 27.0899 33.2331 26.2792C33.244 26.2322 33.255 26.1852 33.2663 26.1368C33.4305 25.3954 33.4905 24.6662 33.4866 23.9097C33.4865 23.868 33.4864 23.8264 33.4863 23.7835C33.4833 23.0737 33.4354 22.3861 33.3 21.6881C33.2906 21.6379 33.2812 21.5878 33.2716 21.5361C33.0532 20.3949 32.6666 19.3303 32.117 18.3081C32.0881 18.2523 32.0592 18.1964 32.0294 18.1389C31.589 17.3022 31.015 16.538 30.3749 15.8442C30.2692 15.729 30.1684 15.6111 30.0679 15.4915C28.9066 14.165 27.246 13.2319 25.6387 12.5622C25.5758 12.5356 25.5128 12.509 25.4479 12.4816C24.5439 12.1164 23.615 11.9484 22.6531 11.7735C22.6531 8.65043 22.6531 5.52735 22.6531 2.30963C25.5717 2.30963 28.4903 2.30963 31.4973 2.30963C31.4973 3.05322 31.4973 3.79681 31.4973 4.56294C29.3409 4.56294 27.1845 4.56294 24.9627 4.56294C24.9627 6.32896 24.9627 8.09499 24.9627 9.91454C25.1486 9.95172 25.3345 9.98889 25.5261 10.0272C28.9346 10.9742 32.0514 13.4323 33.8008 16.5062C34.6764 18.0754 35.3085 19.686 35.6096 21.4627C35.6222 21.5317 35.6222 21.5317 35.6351 21.6021C35.8763 22.9344 35.8401 24.3319 35.6809 25.6727C35.6704 25.7624 35.6607 25.8522 35.6516 25.942C35.647 25.9877 35.6423 26.0333 35.6376 26.0802C35.6335 26.1212 35.6295 26.1621 35.6253 26.2042C35.6096 26.3073 35.6096 26.3073 35.5533 26.42C35.5463 26.4931 35.5393 26.5662 35.5321 26.6416C35.4996 26.9556 35.4179 27.2482 35.3279 27.5502C35.3105 27.6089 35.293 27.6676 35.2751 27.7281C34.7083 29.5954 33.877 31.3371 32.624 32.8419C32.5862 32.8883 32.5862 32.8883 32.5476 32.9356C31.8884 33.7441 31.1522 34.5268 30.3143 35.1516C30.2793 35.1781 30.2442 35.2047 30.2081 35.2321C28.8876 36.2297 27.4578 37.0262 25.8786 37.5328C25.7594 37.5713 25.6409 37.6115 25.5225 37.6524C22.333 38.7325 18.3958 38.4301 15.3722 36.9579C15.2239 36.8836 15.0769 36.807 14.9304 36.7293C14.8237 36.673 14.7163 36.6182 14.6088 36.5636C13.8406 36.1699 13.1351 35.6847 12.4569 35.1516C12.4037 35.11 12.3506 35.0685 12.2958 35.0257C11.8702 34.6794 11.4797 34.2988 11.0908 33.9122C11.0129 33.835 11.0129 33.835 10.9333 33.7563C10.4554 33.2762 10.0283 32.7632 9.64026 32.2082C9.59748 32.1471 9.59748 32.1471 9.55383 32.0848C9.28092 31.6912 9.03074 31.2873 8.79528 30.8703C8.77461 30.834 8.75394 30.7978 8.73264 30.7604C8.3534 30.0899 8.05659 29.3921 7.78129 28.6733C7.76677 28.636 7.75226 28.5988 7.73731 28.5604C7.55331 28.0814 7.43725 27.5883 7.32359 27.0889C7.30996 27.0296 7.29633 26.9703 7.28229 26.9091C7.06275 25.9063 6.96247 24.9217 6.97151 23.8956C6.97193 23.8144 6.97193 23.8144 6.97236 23.7317C6.99291 20.3455 8.16668 17.1153 10.3726 14.5338C10.4085 14.4916 10.4443 14.4494 10.4813 14.406C11.1191 13.6776 11.8054 12.9764 12.5888 12.405C12.6821 12.3369 12.7744 12.2675 12.8666 12.198C14.1451 11.2466 15.5692 10.5518 17.0832 10.0659C17.13 10.0509 17.1768 10.0358 17.2251 10.0203C17.269 10.0065 17.313 9.99277 17.3583 9.97857C17.4172 9.96002 17.4172 9.96002 17.4773 9.94109C17.5832 9.91454 17.5832 9.91454 17.7522 9.91454C17.7522 8.14851 17.7522 6.38248 17.7522 4.56294C15.5957 4.56294 13.4393 4.56294 11.2176 4.56294C11.2176 3.81935 11.2176 3.07576 11.2176 2.30963Z" fill="#FDFEFE"/>
<path d="M80.7707 9.61531C80.8099 9.6151 80.849 9.61489 80.8893 9.61468C81.6414 9.6126 82.3771 9.66978 83.098 9.90049C83.1455 9.91531 83.193 9.93013 83.242 9.94541C84.6554 10.3946 85.8142 11.0777 86.8722 12.1115C86.9044 12.1424 86.9365 12.1732 86.9696 12.205C88.0299 13.2388 88.7753 14.6818 89.1255 16.1112C89.1453 16.1858 89.1651 16.2605 89.185 16.3352C89.7879 18.6626 89.564 21.329 88.5059 23.4907C88.4875 23.5287 88.4691 23.5666 88.4502 23.6056C87.4133 25.7161 85.6261 27.2455 83.4254 28.0396C81.2006 28.7261 78.7892 28.4962 76.7275 27.4287C74.5552 26.2711 73.1651 24.2564 72.4377 21.9445C72.2183 21.1976 72.0789 20.382 72.0568 19.6038C72.0553 19.5603 72.0539 19.5169 72.0524 19.4721C72.0272 18.6203 72.0939 17.7975 72.2258 16.9562C72.2321 16.9149 72.2384 16.8737 72.2449 16.8312C72.4925 15.2714 73.2257 13.7551 74.2537 12.5622C74.3 12.5084 74.3462 12.4546 74.3939 12.3991C75.553 11.0788 77.1066 10.1896 78.8167 9.80191C78.8724 9.7882 78.8724 9.7882 78.9293 9.77421C79.5376 9.62777 80.1482 9.61688 80.7707 9.61531Z" fill="#2B3033"/>
<path d="M2.09173 6.87256C6.12571 6.87256 10.1597 6.87256 14.3159 6.87256C14.2094 7.13876 14.1019 7.28421 13.904 7.47813C13.874 7.50763 13.844 7.53714 13.813 7.56753C12.7842 8.55308 11.3857 9.14889 9.96001 9.13865C9.89894 9.13867 9.83786 9.13869 9.77494 9.1387C9.575 9.13863 9.37506 9.13775 9.17512 9.13687C9.03573 9.13666 8.89634 9.1365 8.75696 9.13638C8.39152 9.13595 8.02609 9.13485 7.66066 9.1336C7.28719 9.13244 6.91372 9.13193 6.54025 9.13136C5.80851 9.13016 5.07677 9.12826 4.34504 9.12586C4.34837 11.0486 4.35258 12.9713 4.35793 14.8941C4.35857 15.1223 4.3592 15.3506 4.35982 15.5788C4.35994 15.6242 4.36007 15.6697 4.3602 15.7165C4.36218 16.447 4.36358 17.1776 4.36477 17.9082C4.36601 18.6607 4.36788 19.4133 4.37031 20.1659C4.37166 20.5873 4.37273 21.0088 4.37307 21.4302C4.36794 23.5844 4.36794 23.5844 4.47711 25.7349C4.48038 25.7759 4.48365 25.8168 4.48702 25.8589C4.66885 28.0429 5.25954 30.1902 6.20401 32.1659C6.2291 32.2185 6.25419 32.2711 6.28004 32.3252C7.42904 34.6978 9.20502 36.8433 11.2739 38.4752C11.3313 38.5216 11.3887 38.5681 11.4478 38.616C14.1515 40.7943 17.2836 42.2128 20.5688 43.2634C20.6252 43.2822 20.6815 43.3009 20.7396 43.3202C21.1766 43.4612 21.521 43.4529 21.9631 43.3233C22.0061 43.3109 22.0491 43.2985 22.0935 43.2858C26.1157 42.1063 30.0706 40.1008 33.0183 37.0668C33.1555 36.9288 33.2933 36.7917 33.4329 36.6562C33.773 36.3239 34.0774 35.9764 34.3703 35.6022C34.3973 35.5683 34.4242 35.5344 34.4519 35.4995C35.2655 34.4742 35.931 33.3952 36.511 32.2222C36.5311 32.1816 36.5513 32.1411 36.5721 32.0992C36.916 31.4021 37.2275 30.6709 37.4345 29.9205C37.4783 29.7658 37.5303 29.6144 37.5813 29.4619C37.7884 28.8225 37.9232 28.172 38.0425 27.5114C38.0496 27.4732 38.0567 27.4349 38.0641 27.3955C38.2985 26.1246 38.3306 24.8477 38.3316 23.5586C38.332 23.4007 38.3327 23.2429 38.3333 23.0851C38.3345 22.7484 38.3354 22.4116 38.336 22.0749C38.3368 21.588 38.3382 21.1012 38.3398 20.6143C38.3424 19.824 38.3444 19.0337 38.3462 18.2434C38.3479 17.4767 38.3498 16.7099 38.3521 15.9432C38.3522 15.8958 38.3523 15.8483 38.3525 15.7995C38.3532 15.5615 38.3539 15.3235 38.3546 15.0855C38.3604 13.1177 38.3654 11.15 38.3699 9.1822C38.2958 9.18257 38.2218 9.18295 38.1454 9.18333C37.4436 9.18677 36.7417 9.1893 36.0398 9.19095C35.6791 9.19183 35.3183 9.19302 34.9576 9.19495C34.6088 9.1968 34.26 9.1978 33.9111 9.19823C33.7788 9.19854 33.6464 9.19914 33.514 9.20006C31.8764 9.21098 30.3387 8.9485 29.0751 7.83021C29.0257 7.78759 28.9763 7.74496 28.9254 7.70104C28.6714 7.47806 28.4301 7.25857 28.2301 6.98522C28.2301 6.94804 28.2301 6.91086 28.2301 6.87256C32.3384 6.87256 36.4467 6.87256 40.6796 6.87256C40.6864 11.2744 40.6864 11.2744 40.6878 13.124C40.6882 13.5473 40.6885 13.9705 40.6889 14.3938C40.6889 14.4733 40.6889 14.4733 40.689 14.5545C40.6897 15.4063 40.6911 16.2582 40.6926 17.11C40.6942 17.9867 40.6951 18.8635 40.6955 19.7403C40.6957 20.2796 40.6964 20.8189 40.6978 21.3582C40.6987 21.7299 40.699 22.1017 40.6988 22.4735C40.6987 22.6868 40.6988 22.9 40.6997 23.1132C40.7034 24.0049 40.6788 24.8877 40.6022 25.7764C40.5988 25.8166 40.5954 25.8569 40.5918 25.8983C40.3823 28.2986 39.7767 30.6546 38.7643 32.8419C38.7395 32.8954 38.7148 32.949 38.6893 33.0041C38.1668 34.1195 37.5348 35.1822 36.7926 36.1655C36.77 36.1958 36.7474 36.2261 36.7241 36.2573C35.7619 37.5441 34.6582 38.8418 33.3865 39.8285C33.2522 39.9332 33.1235 40.0427 32.9951 40.1545C29.8237 42.9027 25.8248 44.6517 21.8081 45.7421C21.7678 45.7531 21.7274 45.7641 21.6858 45.7754C21.3605 45.848 21.0439 45.7804 20.7273 45.6998C20.6803 45.6879 20.6334 45.676 20.585 45.6638C19.2367 45.3063 17.907 44.8253 16.6255 44.2774C16.5778 44.2571 16.53 44.2367 16.4808 44.2158C16.1504 44.0738 15.8238 43.9245 15.4989 43.7704C15.444 43.7444 15.3891 43.7184 15.3325 43.6915C13.6193 42.8723 11.996 41.8794 10.4853 40.7285C10.4513 40.7026 10.4172 40.6766 10.3821 40.6499C9.99428 40.3531 9.61884 40.0482 9.25918 39.7173C9.14166 39.6095 9.02195 39.505 8.90094 39.4011C8.70224 39.2285 8.51806 39.0441 8.33365 38.8565C8.2289 38.7501 8.2289 38.7501 8.08763 38.6442C7.92387 38.5098 7.7953 38.3579 7.6581 38.197C7.56462 38.0907 7.46781 37.9924 7.36587 37.8942C7.10572 37.6375 6.88204 37.3524 6.65467 37.0668C6.6059 37.0063 6.55712 36.9458 6.50834 36.8853C4.23634 34.05 2.81336 30.6639 2.31002 27.0713C2.29661 26.9759 2.29661 26.9759 2.28294 26.8786C2.2602 26.7097 2.23903 26.5408 2.21883 26.3716C2.20935 26.2924 2.19969 26.2133 2.18982 26.1342C2.0785 25.2213 2.07609 24.3104 2.07865 23.3924C2.07915 23.17 2.07898 22.9475 2.07889 22.7251C2.07883 22.3411 2.07918 21.9572 2.07982 21.5732C2.08074 21.0181 2.08103 20.4629 2.08117 19.9078C2.08141 19.0068 2.08216 18.1058 2.08323 17.2048C2.08427 16.3304 2.08506 15.4559 2.08554 14.5815C2.08557 14.5269 2.0856 14.4723 2.08563 14.4161C2.08587 13.9891 2.08609 13.5621 2.0863 13.1351C2.08736 11.0476 2.08963 8.96006 2.09173 6.87256Z" fill="#FCFEFD"/>
<path d="M104.955 9.85821C106.097 9.85425 107.239 9.85128 108.381 9.84946C108.911 9.84859 109.442 9.84741 109.972 9.84546C110.435 9.84377 110.898 9.84269 111.36 9.84231C111.605 9.84209 111.85 9.84159 112.094 9.84035C114.045 9.83082 114.045 9.83082 114.926 10.0272C115.001 10.0431 115.076 10.059 115.152 10.0749C116.029 10.2702 116.831 10.6919 117.517 11.2665C117.553 11.2933 117.589 11.3201 117.626 11.3477C118.434 11.9711 118.959 13.0327 119.095 14.0268C119.203 15.146 118.945 16.1286 118.257 17.0301C117.546 17.8706 116.531 18.4314 115.489 18.7588C115.526 18.7701 115.562 18.7814 115.599 18.793C117.233 19.3068 118.703 19.9854 119.559 21.551C119.835 22.0898 119.961 22.6719 119.957 23.2759C119.957 23.3223 119.957 23.3687 119.956 23.4166C119.935 24.6052 119.461 25.6823 118.614 26.5113C118.152 26.9437 117.637 27.2302 117.067 27.4903C117.028 27.5088 116.99 27.5273 116.95 27.5464C116.634 27.6945 116.322 27.7871 115.982 27.8635C115.93 27.8755 115.878 27.8875 115.824 27.8998C114.813 28.128 113.81 28.1755 112.776 28.1727C112.69 28.1727 112.604 28.1727 112.518 28.1727C112.287 28.1728 112.057 28.1724 111.826 28.172C111.584 28.1717 111.342 28.1716 111.1 28.1716C110.643 28.1714 110.186 28.1709 109.729 28.1704C109.208 28.1697 108.687 28.1694 108.166 28.1691C107.096 28.1686 106.025 28.1676 104.955 28.1663C104.988 27.8939 105.025 27.6374 105.097 27.3722C105.114 27.3083 105.131 27.2444 105.148 27.1786C105.183 27.0493 105.218 26.92 105.253 26.7909C105.525 25.7516 105.6 24.6988 105.597 23.6284C105.597 23.5136 105.597 23.3988 105.598 23.284C105.598 22.9765 105.598 22.669 105.597 22.3615C105.597 22.0371 105.597 21.7127 105.598 21.3883C105.598 20.8441 105.598 20.2999 105.597 19.7557C105.596 19.1295 105.596 18.5034 105.597 17.8773C105.598 17.3362 105.598 16.7951 105.598 16.2541C105.597 15.9324 105.597 15.6108 105.598 15.2892C105.598 14.9867 105.598 14.6842 105.597 14.3817C105.597 14.2717 105.597 14.1617 105.597 14.0518C105.6 13.0048 105.474 12.0034 105.202 10.9919C105.167 10.8595 105.132 10.727 105.097 10.5945C105.082 10.538 105.067 10.4815 105.051 10.4233C105.008 10.2359 104.981 10.0489 104.955 9.85821Z" fill="#2B3134"/>
<path d="M125.685 9.85822C127.21 9.85822 128.734 9.85822 130.305 9.85822C130.558 10.4288 130.558 10.4288 130.637 10.6324C130.664 10.7013 130.664 10.7013 130.691 10.7717C130.71 10.8197 130.729 10.8678 130.748 10.9173C130.768 10.9689 130.788 11.0206 130.808 11.0738C130.85 11.1827 130.893 11.2916 130.935 11.4006C130.997 11.5633 131.06 11.7259 131.124 11.8885C131.339 12.4442 131.545 13.0017 131.74 13.565C131.856 13.8998 131.981 14.23 132.111 14.5596C132.274 14.975 132.431 15.3928 132.587 15.8108C132.615 15.8866 132.644 15.9624 132.672 16.0382C132.789 16.3499 132.905 16.6616 133.021 16.9734C133.108 17.2044 133.194 17.4353 133.28 17.6662C133.295 17.7042 133.309 17.7422 133.324 17.7813C133.571 18.4414 133.824 19.0991 134.08 19.7557C134.264 20.2265 134.437 20.6996 134.598 21.1787C134.702 21.479 134.819 21.7741 134.935 22.07C135.054 22.3758 135.171 22.6825 135.286 22.9901C135.805 24.3802 135.805 24.3802 136.389 25.744C136.424 25.8221 136.424 25.8221 136.46 25.9017C136.771 26.585 137.109 27.2339 137.514 27.8664C137.628 28.0537 137.628 28.0537 137.628 28.1663C135.602 28.1663 133.575 28.1663 131.488 28.1663C131.521 27.868 131.555 27.5778 131.602 27.2826C131.862 25.48 131.412 23.999 130.747 22.3555C130.643 22.0945 130.643 22.0945 130.643 21.9697C128.449 21.9697 126.256 21.9697 123.995 21.9697C123.958 22.137 123.921 22.3043 123.883 22.4767C123.851 22.5668 123.817 22.6562 123.781 22.7443C123.255 24.1892 123.203 25.7221 123.601 27.2087C123.634 27.3401 123.667 27.4715 123.7 27.603C123.713 27.653 123.727 27.7029 123.741 27.7544C123.77 27.8847 123.77 27.8847 123.77 28.11C122.599 28.11 121.428 28.11 120.221 28.11C120.272 27.8548 120.349 27.67 120.468 27.4446C120.947 26.5036 121.369 25.5415 121.76 24.561C121.776 24.52 121.793 24.479 121.809 24.4368C122.126 23.6407 122.431 22.841 122.707 22.0296C122.926 21.3899 123.156 20.7541 123.388 20.1189C123.592 19.5586 123.794 18.9974 123.995 18.4358C124.281 17.637 124.571 16.8399 124.865 16.0442C125.211 15.1125 125.211 15.1125 125.539 14.1745C125.606 13.9784 125.678 13.7854 125.753 13.5922C126.178 12.4568 126.264 11.3405 125.762 10.2121C125.685 10.0272 125.685 10.0272 125.685 9.85822Z" fill="#2B3134"/>
<path d="M82.5478 11.3587C83.8581 12.4297 84.4549 14.3005 84.7578 15.8981C84.7777 16.0018 84.7988 16.1052 84.8212 16.2084C85.0122 17.0949 85.0342 17.9681 85.0344 18.8714C85.0345 18.9279 85.0346 18.9845 85.0347 19.0427C85.0345 19.7625 85.0002 20.468 84.9006 21.1811C84.8917 21.2445 84.8917 21.2445 84.8827 21.3093C84.7201 22.4581 84.4157 23.5573 83.9429 24.6174C83.9263 24.6547 83.9097 24.6921 83.8925 24.7306C83.3984 25.8209 82.7123 26.7635 81.577 27.2087C80.9681 27.4282 80.3071 27.3811 79.7197 27.1266C78.4669 26.4888 77.7252 25.1902 77.2945 23.8952C77.2691 23.8167 77.244 23.7382 77.2192 23.6595C77.185 23.5531 77.1476 23.4477 77.11 23.3424C76.8562 22.6046 76.7412 21.8371 76.6197 21.0684C76.6121 21.0224 76.6044 20.9764 76.5965 20.929C76.141 18.1239 76.5902 14.5332 78.2569 12.1819C78.7648 11.4988 79.411 10.8952 80.2727 10.7285C81.1507 10.6034 81.8429 10.8423 82.5478 11.3587Z" fill="#FEFEFE"/>
<path d="M70.0852 10.5905C70.2153 10.6277 70.3454 10.6649 70.4795 10.7032C70.4795 12.2275 70.4795 13.7519 70.4795 15.3225C70.2392 15.2624 70.222 15.2531 70.0918 15.0646C70.0624 15.0227 70.033 14.9809 70.0026 14.9378C69.9718 14.8928 69.9409 14.8478 69.9091 14.8014C69.8435 14.7082 69.7778 14.615 69.712 14.5219C69.6635 14.4529 69.6635 14.4529 69.6141 14.3825C69.2673 13.8923 68.8919 13.4338 68.4808 12.9965C68.3631 12.8699 68.2519 12.741 68.1417 12.6079C67.9006 12.3307 67.6147 12.1101 67.3249 11.8862C67.2487 11.8266 67.2487 11.8266 67.1711 11.7658C66.3876 11.1723 65.4007 10.7002 64.3938 10.8307C63.4709 10.9985 62.7956 11.3933 62.1423 12.0552C62.1005 12.097 62.0588 12.1388 62.0158 12.1819C60.1361 14.1751 59.8775 17.246 59.935 19.8334C59.9537 20.4413 60.046 21.037 60.1706 21.6317C60.1815 21.6836 60.1923 21.7355 60.2035 21.789C60.6025 23.6324 61.4019 25.6352 63.0436 26.7016C63.8062 27.177 64.5551 27.3338 65.443 27.1717C66.4792 26.8799 67.2944 26.1904 68.0572 25.4623C68.0984 25.4235 68.1396 25.3846 68.182 25.3446C68.4872 25.049 68.75 24.7236 69.0149 24.392C69.069 24.326 69.1232 24.2601 69.1775 24.1942C69.5018 23.7978 69.8033 23.3985 70.0684 22.9595C70.1327 22.8572 70.1327 22.8572 70.2542 22.702C70.3285 22.702 70.4029 22.702 70.4795 22.702C70.4795 24.2264 70.4795 25.7507 70.4795 27.3213C69.6233 27.5848 69.6233 27.5848 69.2402 27.6839C69.1952 27.6956 69.1502 27.7072 69.1039 27.7192C69.0092 27.7436 68.9145 27.7678 68.8197 27.7919C68.7254 27.8159 68.6311 27.8402 68.5369 27.8647C67.7609 28.0654 66.9825 28.2015 66.1889 28.3124C66.058 28.3312 65.9277 28.3518 65.7973 28.3742C64.6763 28.5496 63.417 28.5424 62.3113 28.279C62.2406 28.2622 62.2406 28.2622 62.1685 28.245C60.605 27.8603 59.3174 27.1201 58.1427 26.0257C58.0853 25.9728 58.0853 25.9728 58.0267 25.9189C56.7072 24.6578 55.9772 22.8767 55.6077 21.1247C55.5982 21.0799 55.5886 21.0351 55.5788 20.989C55.3363 19.8015 55.3458 18.4867 55.5514 17.2941C55.5586 17.2487 55.5659 17.2034 55.5734 17.1566C55.7394 16.1289 56.0309 15.1777 56.509 14.2521C56.5377 14.1966 56.5377 14.1966 56.5669 14.1399C57.6041 12.1567 59.3805 10.6662 61.5184 9.98513C64.2966 9.17239 67.3827 9.7396 70.0852 10.5905Z" fill="#2B3134"/>
<path d="M90.9846 9.85822C92.7321 9.85822 94.4795 9.85822 96.2799 9.85822C96.1541 10.4873 96.1541 10.4873 96.0882 10.7573C96.0741 10.8165 96.06 10.8757 96.0454 10.9367C96.0168 11.0559 95.9879 11.175 95.9587 11.294C95.7109 12.3397 95.6351 13.3553 95.6359 14.4284C95.6354 14.5667 95.6348 14.7051 95.6341 14.8434C95.6329 15.1389 95.6322 15.4343 95.6319 15.7297C95.6316 16.1568 95.6303 16.5839 95.6288 17.0109C95.6263 17.7042 95.6246 18.3975 95.6234 19.0907C95.6222 19.7634 95.6207 20.436 95.6187 21.1086C95.6186 21.1503 95.6184 21.1919 95.6183 21.2347C95.6177 21.4435 95.617 21.6522 95.6164 21.861C95.6112 23.5872 95.6072 25.3134 95.6039 27.0397C96.0328 27.0359 96.4616 27.0308 96.8905 27.0249C97.0361 27.023 97.1818 27.0214 97.3275 27.0201C97.5378 27.0182 97.7481 27.0153 97.9584 27.0122C98.0227 27.0118 98.087 27.0114 98.1532 27.0111C99.71 26.9831 100.861 25.9833 101.891 24.9153C102.236 24.5526 102.563 24.1806 102.877 23.7904C103.016 23.62 103.156 23.4674 103.321 23.3217C103.377 23.3217 103.433 23.3217 103.49 23.3217C103.49 24.9018 103.49 26.482 103.49 28.11C99.3635 28.11 95.2366 28.11 90.9846 28.11C91.0477 27.6053 91.0477 27.6053 91.1125 27.3711C91.1265 27.3181 91.1406 27.2652 91.155 27.2106C91.1836 27.1052 91.2124 26.9999 91.2417 26.8947C91.293 26.7 91.3367 26.5041 91.3789 26.3073C91.3883 26.2648 91.3976 26.2222 91.4072 26.1783C91.6688 24.9253 91.6376 23.6614 91.6345 22.3878C91.634 22.0694 91.6345 21.7511 91.6349 21.4328C91.6353 20.8988 91.6347 20.3647 91.6337 19.8306C91.6324 19.2172 91.6328 18.6038 91.6341 17.9903C91.6351 17.4593 91.6352 16.9283 91.6346 16.3972C91.6343 16.082 91.6342 15.7667 91.635 15.4515C91.6434 13.5729 91.6434 13.5729 91.3789 11.7172C91.3692 11.6714 91.3594 11.6256 91.3493 11.5785C91.2944 11.325 91.2334 11.0739 91.1677 10.8229C91.1326 10.6858 91.0976 10.5486 91.063 10.4114C91.0479 10.3535 91.0328 10.2955 91.0172 10.2358C90.9846 10.0835 90.9846 10.0835 90.9846 9.85822Z" fill="#2A3033"/>
<path d="M20.3435 14.4211C21.0313 14.4211 21.7191 14.4211 22.4278 14.4211C22.4464 16.4474 22.465 18.4737 22.4841 20.5614C23.9155 19.13 25.3469 17.6986 26.8217 16.2238C27.0596 16.4277 27.2822 16.621 27.501 16.8412C27.5506 16.891 27.6001 16.9407 27.6512 16.992C27.7269 17.0683 27.7269 17.0683 27.804 17.1462C27.856 17.1984 27.9079 17.2507 27.9615 17.3044C28.0887 17.4323 28.2158 17.5603 28.3427 17.6884C28.1064 17.9704 27.86 18.2353 27.5992 18.4947C27.5595 18.5344 27.5198 18.5741 27.4789 18.615C27.3517 18.7422 27.2242 18.8692 27.0968 18.9962C27.0177 19.0752 26.9386 19.1542 26.8596 19.2332C26.5678 19.5247 26.2758 19.816 25.9838 20.1072C25.3308 20.759 24.6779 21.4108 24.0051 22.0824C26.0314 22.101 28.0577 22.1196 30.1454 22.1387C30.1454 22.8265 30.1454 23.5144 30.1454 24.223C29.3241 24.2307 28.503 24.2369 27.6817 24.2405C27.3004 24.2423 26.919 24.2446 26.5377 24.2485C26.1695 24.2523 25.8014 24.2542 25.4332 24.2551C25.2929 24.2557 25.1526 24.2569 25.0123 24.2588C24.8154 24.2612 24.6186 24.2615 24.4217 24.2614C24.364 24.2626 24.3063 24.2638 24.2468 24.2651C23.7281 24.2606 23.4263 24.0414 23.0646 23.6874C22.9998 23.6199 22.9354 23.552 22.8714 23.4837C22.5037 23.0909 22.1366 22.8058 21.5824 22.7375C20.8756 22.7224 20.403 22.9472 19.9017 23.425C19.7832 23.541 19.6676 23.6596 19.5533 23.7796C19.2557 24.092 18.9737 24.2859 18.5309 24.3064C18.4197 24.3071 18.3085 24.3065 18.1973 24.3049C18.1363 24.305 18.0752 24.305 18.0123 24.305C17.8118 24.3049 17.6112 24.3031 17.4107 24.3014C17.2711 24.3009 17.1316 24.3006 16.992 24.3004C16.6257 24.2995 16.2593 24.2973 15.8929 24.2948C15.5187 24.2925 15.1445 24.2915 14.7703 24.2904C14.0367 24.2879 13.3032 24.284 12.5696 24.2794C12.5696 23.5729 12.5696 22.8665 12.5696 22.1387C14.5959 22.1201 16.6221 22.1015 18.7098 22.0824C17.297 20.6696 15.8842 19.2567 14.4286 17.8011C14.5414 17.5754 14.6713 17.4312 14.848 17.258C14.8778 17.2283 14.9077 17.1986 14.9384 17.168C15.0334 17.0737 15.1288 16.9797 15.2243 16.8857C15.2889 16.8216 15.3535 16.7575 15.4181 16.6934C15.5762 16.5365 15.7346 16.3801 15.8932 16.2238C16.1728 16.4583 16.4364 16.7023 16.6943 16.9603C16.7328 16.9987 16.7713 17.037 16.811 17.0765C16.937 17.202 17.0628 17.3277 17.1886 17.4534C17.2765 17.5411 17.3643 17.6287 17.4522 17.7164C17.6356 17.8994 17.8188 18.0826 18.002 18.2658C18.2373 18.5012 18.473 18.7361 18.7088 18.9709C18.89 19.1514 19.0709 19.3322 19.2517 19.5131C19.3386 19.5999 19.4256 19.6866 19.5126 19.7732C19.6337 19.8938 19.7544 20.0147 19.8751 20.1357C19.9113 20.1716 19.9476 20.2075 19.985 20.2446C20.2308 20.4922 20.2308 20.4922 20.2308 20.6177C20.268 20.6177 20.3052 20.6177 20.3435 20.6177C20.3435 18.5729 20.3435 16.528 20.3435 14.4211Z" fill="#FDFEFE"/>
<path d="M25.2444 28.8423C25.3556 28.8899 25.4653 28.941 25.5738 28.9946C25.6385 29.0262 25.7031 29.0578 25.7697 29.0904C25.804 29.1073 25.8382 29.1242 25.8735 29.1416C26.0574 29.2325 26.2419 29.3222 26.4263 29.412C26.4641 29.4304 26.502 29.4489 26.5409 29.4679C26.9115 29.6481 27.2853 29.8213 27.6597 29.9936C28.24 30.2612 28.8168 30.5353 29.3919 30.8139C29.4286 30.8317 29.4653 30.8495 29.5031 30.8678C29.9252 31.0723 30.3462 31.2789 30.765 31.4899C30.6457 31.7215 30.4928 31.881 30.308 32.0596C30.2017 32.1659 30.105 32.2765 30.008 32.3912C29.8085 32.6217 29.59 32.8155 29.3567 33.0109C29.2858 33.0733 29.2858 33.0733 29.2134 33.137C28.0399 34.1519 26.6929 34.8438 25.2444 35.3769C25.2013 35.3928 25.1581 35.4087 25.1137 35.4251C24.4617 35.66 23.7864 35.7761 23.1038 35.8839C23.0425 35.8941 22.9812 35.9042 22.918 35.9147C22.448 35.9886 21.9913 36.0144 21.5159 36.0106C21.4446 36.0102 21.3733 36.0098 21.2998 36.0093C19.6373 35.9904 17.1286 35.678 15.8487 34.4951C15.8262 34.47 15.8037 34.445 15.7805 34.4192C15.8702 34.3641 15.9598 34.3089 16.0494 34.2537C16.108 34.2177 16.1665 34.1817 16.2268 34.1446C16.3583 34.0637 16.4897 33.9828 16.6212 33.9019C16.9552 33.6964 17.2891 33.4908 17.623 33.2851C18.367 32.8267 19.1124 32.3708 19.8591 31.9169C20.4386 31.5645 21.0169 31.2102 21.5933 30.8527C22.1748 30.492 22.7592 30.1362 23.3439 29.781C23.5821 29.6362 23.82 29.491 24.0579 29.3458C24.0975 29.3216 24.1371 29.2974 24.1779 29.2726C24.2155 29.2496 24.2531 29.2266 24.2918 29.2029C24.3281 29.181 24.3644 29.1591 24.4018 29.1365C24.4792 29.0881 24.5554 29.0377 24.6305 28.9858C24.6693 28.9594 24.7082 28.933 24.7482 28.9059C24.7826 28.8816 24.8171 28.8573 24.8526 28.8323C25.0061 28.7677 25.0862 28.794 25.2444 28.8423Z" fill="#44CF9C"/>
<path d="M109.574 19.4348C113.828 19.4348 113.828 19.4348 114.721 20.2892C115.637 21.3124 115.896 22.4612 115.836 23.7984C115.783 24.6732 115.528 25.4821 114.926 26.1383C113.405 27.4336 111.508 27.0397 109.574 27.0397C109.574 24.53 109.574 22.0204 109.574 19.4348Z" fill="#FDFDFD"/>
<path d="M109.574 10.9849C113.098 10.9849 113.098 10.9849 113.902 11.7313C114.747 12.6527 114.979 13.7616 114.949 14.9706C114.901 15.9673 114.504 16.9376 113.783 17.6353C112.63 18.6775 111.032 18.3644 109.574 18.3644C109.574 15.9292 109.574 13.4939 109.574 10.9849Z" fill="#FDFDFD"/>
<path d="M139.012 5.07697C139.658 5.51533 140.063 6.0659 140.3 6.8092C140.426 7.47453 140.352 8.06969 140.05 8.67522C140.026 8.72562 140.001 8.77601 139.976 8.82793C139.574 9.57317 138.91 9.92337 138.133 10.1775C137.347 10.3108 136.615 10.1287 135.962 9.67997C135.441 9.28636 135.03 8.71385 134.89 8.06656C134.777 7.14905 134.909 6.37936 135.487 5.63326C136.364 4.64197 137.88 4.40706 139.012 5.07697Z" fill="#FCFCFC"/>
<path d="M127.207 13.0128C127.372 13.1533 127.431 13.2951 127.505 13.4971C127.53 13.5622 127.554 13.6274 127.579 13.6945C127.606 13.7663 127.632 13.838 127.658 13.9097C127.686 13.9844 127.714 14.059 127.741 14.1336C127.801 14.2924 127.859 14.4512 127.918 14.6101C128.009 14.8582 128.101 15.106 128.194 15.3539C128.217 15.4153 128.217 15.4153 128.24 15.4779C128.271 15.5604 128.301 15.6429 128.332 15.7254C128.378 15.8488 128.424 15.9722 128.47 16.0956C128.711 16.7459 128.959 17.3938 129.21 18.0405C129.449 18.6568 129.681 19.2743 129.894 19.9001C129.974 20.1302 130.062 20.3554 130.157 20.5794C130.192 20.6741 130.192 20.6741 130.192 20.7867C128.296 20.7867 126.4 20.7867 124.446 20.7867C124.965 19.2295 124.965 19.2295 125.154 18.713C125.175 18.6547 125.196 18.5965 125.218 18.5365C125.361 18.1424 125.506 17.7492 125.652 17.3561C125.801 16.9532 125.941 16.5475 126.081 16.1415C126.212 15.7624 126.349 15.3858 126.49 15.0099C126.663 14.5432 126.824 14.0725 126.985 13.6017C127.006 13.5415 127.026 13.4813 127.048 13.4192C127.066 13.3653 127.085 13.3113 127.104 13.2557C127.15 13.1255 127.15 13.1255 127.207 13.0128Z" fill="#FDFDFD"/>
<path d="M107.152 34.3065C107.613 34.3031 108.075 34.2996 108.55 34.296C108.694 34.2944 108.839 34.2929 108.987 34.2913C109.104 34.2908 109.22 34.2904 109.336 34.29C109.395 34.2892 109.454 34.2883 109.514 34.2874C110.055 34.2872 110.576 34.3598 111.002 34.7167C111.244 34.9673 111.333 35.2212 111.356 35.567C111.341 35.9901 111.117 36.3317 110.814 36.6162C110.859 36.6469 110.859 36.6469 110.904 36.6782C111.216 36.9003 111.422 37.0895 111.546 37.4612C111.597 37.8822 111.569 38.2221 111.325 38.5768C110.878 39.0493 110.216 39.1335 109.596 39.1567C109.197 39.1648 108.798 39.1614 108.398 39.1582C107.782 39.1547 107.782 39.1547 107.152 39.1511C107.152 37.5524 107.152 35.9537 107.152 34.3065Z" fill="#2D3336"/>
<path d="M81.0701 34.3066C81.3861 34.3066 81.7021 34.3066 82.0277 34.3066C82.209 34.4976 82.2692 34.5852 82.3657 34.8136C82.4188 34.9031 82.4732 34.9919 82.5288 35.0798C82.5837 35.1717 82.6385 35.2637 82.6932 35.3558C82.7522 35.4547 82.8112 35.5537 82.8703 35.6526C82.8992 35.7011 82.928 35.7496 82.9578 35.7995C83.035 35.929 83.1125 36.0582 83.1902 36.1873C83.2129 36.2249 83.2355 36.2626 83.2588 36.3013C83.2801 36.3367 83.3014 36.372 83.3234 36.4085C83.477 36.6637 83.627 36.9205 83.774 37.1795C83.9582 37.0222 84.0639 36.8165 84.1824 36.6092C84.2321 36.5235 84.2818 36.4379 84.3316 36.3524C84.3591 36.3052 84.3865 36.258 84.4148 36.2094C84.591 35.9083 84.7706 35.6092 84.95 35.31C84.9862 35.2495 85.0223 35.1889 85.0596 35.1266C85.0942 35.069 85.1287 35.0113 85.1643 34.952C85.1949 34.9008 85.2256 34.8497 85.2571 34.797C85.3597 34.631 85.4684 34.4689 85.5767 34.3066C85.8927 34.3066 86.2087 34.3066 86.5343 34.3066C86.5343 35.8867 86.5343 37.4668 86.5343 39.0949C86.1811 39.0949 85.8279 39.0949 85.464 39.0949C85.4454 38.2025 85.4268 37.3102 85.4077 36.3909C85.2357 36.6802 85.0638 36.9695 84.8866 37.2676C84.8328 37.3581 84.7789 37.4486 84.7235 37.5419C84.6802 37.6148 84.6368 37.6878 84.5935 37.7607C84.5715 37.7976 84.5496 37.8345 84.527 37.8725C84.3862 38.1096 84.2482 38.3481 84.112 38.5879C83.9139 38.6237 83.7462 38.6307 83.5487 38.5879C83.4458 38.4833 83.4458 38.4833 83.3559 38.3434C83.3226 38.2922 83.2893 38.241 83.255 38.1882C83.2218 38.1342 83.1886 38.0802 83.1544 38.0245C83.1226 37.973 83.0908 37.9215 83.058 37.8684C82.963 37.7112 82.87 37.553 82.7777 37.3943C82.7464 37.341 82.7151 37.2878 82.6829 37.2329C82.519 36.9532 82.3576 36.6724 82.1967 36.3909C82.1781 37.2832 82.1595 38.1755 82.1404 39.0949C81.7872 39.0949 81.434 39.0949 81.0701 39.0949C81.0701 37.5147 81.0701 35.9346 81.0701 34.3066Z" fill="#2E3437"/>
<path d="M89.1256 34.3066C89.4974 34.3066 89.8692 34.3066 90.2522 34.3066C90.5642 34.9205 90.8559 35.5386 91.1324 36.1691C91.2105 36.3463 91.2887 36.5234 91.367 36.7005C91.3866 36.7449 91.4061 36.7892 91.4263 36.8349C91.5618 37.1414 91.6992 37.4469 91.8379 37.7519C91.8564 37.7925 91.8748 37.8332 91.8939 37.8751C91.9648 38.0312 92.0359 38.1873 92.1073 38.3432C92.1557 38.4489 92.2039 38.5547 92.252 38.6605C92.2793 38.7201 92.3066 38.7798 92.3348 38.8413C92.3929 38.9822 92.3929 38.9822 92.3929 39.0949C92.0025 39.0949 91.6121 39.0949 91.2099 39.0949C91.1448 38.9485 91.0797 38.8021 91.0127 38.6512C90.9921 38.6052 90.9715 38.5592 90.9503 38.5117C90.9343 38.4754 90.9183 38.4391 90.9018 38.4017C90.8853 38.3645 90.8688 38.3274 90.8517 38.2891C90.8155 38.1935 90.8155 38.1935 90.8155 38.0809C90.072 38.0809 89.3284 38.0809 88.5622 38.0809C88.5065 38.2482 88.4507 38.4155 88.3932 38.5879C88.3189 38.7552 88.2445 38.9225 88.1679 39.0949C87.7961 39.0949 87.4243 39.0949 87.0413 39.0949C87.0808 38.8969 87.1081 38.7704 87.1879 38.5962C87.2065 38.5553 87.225 38.5145 87.2441 38.4724C87.2745 38.4066 87.2745 38.4066 87.3055 38.3394C87.3268 38.2927 87.3481 38.2461 87.37 38.198C87.4158 38.0974 87.4618 37.9968 87.5079 37.8963C87.6298 37.6306 87.7508 37.3644 87.8719 37.0983C87.9089 37.0172 87.9089 37.0172 87.9467 36.9344C88.1952 36.3886 88.4391 35.8407 88.6819 35.2924C88.7977 35.0311 88.7977 35.0311 88.8526 34.9072C88.886 34.8318 88.9194 34.7563 88.9528 34.6808C89.0085 34.555 89.064 34.4297 89.1256 34.3066Z" fill="#2C3235"/>
<path d="M103.321 34.3066C103.693 34.3066 104.065 34.3066 104.448 34.3066C104.781 34.9495 105.073 35.6077 105.365 36.27C105.499 36.5735 105.635 36.8763 105.771 37.1789C105.815 37.2761 105.858 37.3733 105.902 37.4706C105.967 37.6148 106.032 37.7591 106.097 37.9033C106.158 38.0385 106.219 38.1738 106.279 38.3091C106.297 38.3493 106.316 38.3896 106.334 38.431C106.351 38.469 106.368 38.507 106.386 38.5461C106.401 38.5788 106.415 38.6115 106.431 38.6452C106.49 38.7924 106.538 38.9441 106.589 39.0949C106.198 39.0949 105.808 39.0949 105.406 39.0949C105.075 38.3977 105.075 38.3977 105.011 38.0809C104.268 38.0809 103.524 38.0809 102.758 38.0809C102.702 38.2482 102.647 38.4155 102.589 38.5879C102.515 38.7552 102.44 38.9225 102.364 39.0949C101.992 39.0949 101.62 39.0949 101.237 39.0949C101.282 38.8704 101.327 38.7203 101.419 38.5174C101.447 38.4576 101.474 38.3978 101.502 38.3361C101.532 38.2705 101.562 38.2048 101.593 38.1372C101.659 37.9917 101.725 37.846 101.79 37.7004C101.817 37.6409 101.817 37.6409 101.845 37.5801C102.005 37.2274 102.162 36.8736 102.319 36.5196C102.344 36.4628 102.369 36.4061 102.395 36.3476C102.497 36.1186 102.598 35.8895 102.7 35.6604C102.772 35.4985 102.843 35.3366 102.915 35.1747C102.937 35.1261 102.958 35.0776 102.98 35.0276C103 34.9821 103.021 34.9366 103.041 34.8897C103.068 34.8307 103.068 34.8307 103.094 34.7705C103.166 34.6142 103.244 34.4606 103.321 34.3066Z" fill="#2C3235"/>
<path d="M92.8999 34.3066C93.2717 34.3066 93.6435 34.3066 94.0266 34.3066C94.0544 35.3383 94.0544 35.3383 94.0829 36.3909C94.6391 35.8455 94.6391 35.8455 95.1613 35.2684C95.3361 35.0731 95.5243 34.8909 95.7117 34.7078C95.8426 34.5791 95.9523 34.46 96.0545 34.3066C96.1863 34.2874 96.1863 34.2874 96.349 34.2901C96.4361 34.2909 96.4361 34.2909 96.525 34.2917C96.5858 34.2931 96.6467 34.2946 96.7094 34.296C96.7707 34.2968 96.832 34.2975 96.8951 34.2983C97.0468 34.3003 97.1985 34.3031 97.3502 34.3066C97.1475 34.5451 96.9424 34.7803 96.7305 35.0107C96.7049 35.0387 96.6792 35.0666 96.6527 35.0953C96.4261 35.3414 96.1982 35.5864 95.97 35.8311C95.9363 35.8673 95.9025 35.9036 95.8677 35.9409C95.8358 35.975 95.804 36.0091 95.7711 36.0443C95.7429 36.0745 95.7147 36.1047 95.6856 36.1359C95.6034 36.2224 95.5196 36.3069 95.4349 36.3909C95.5294 36.6085 95.6717 36.7845 95.8186 36.9683C95.8593 37.0197 95.8593 37.0197 95.9008 37.072C96.141 37.3743 96.3853 37.6732 96.6293 37.9723C96.8316 38.2209 97.031 38.4715 97.227 38.7252C97.251 38.7561 97.275 38.7871 97.2998 38.819C97.4628 39.0316 97.4628 39.0316 97.4628 39.0949C96.3487 39.2365 96.3487 39.2365 95.9868 39.0209C95.7695 38.8203 95.6171 38.5753 95.4633 38.3247C95.3163 38.0973 95.1402 37.8939 94.9666 37.6865C94.9045 37.6104 94.8425 37.5341 94.7807 37.4577C94.7363 37.4031 94.6919 37.3485 94.6462 37.2922C94.6055 37.3329 94.5649 37.3735 94.523 37.4154C94.3646 37.5739 94.3646 37.5739 94.209 37.6925C94.0162 37.9418 94.0389 38.1859 94.0371 38.4928C94.0357 38.5506 94.0343 38.6085 94.0328 38.6681C94.0295 38.8103 94.0279 38.9526 94.0266 39.0949C93.6548 39.0949 93.283 39.0949 92.8999 39.0949C92.8999 37.5147 92.8999 35.9346 92.8999 34.3066Z" fill="#2C3235"/>
<path d="M17.4507 28.9288C17.7087 29.0416 17.9634 29.16 18.2169 29.2824C18.2671 29.3064 18.3173 29.3304 18.369 29.3551C18.7097 29.5186 19.0483 29.6863 19.3858 29.8563C19.2003 30.0094 19.013 30.1439 18.8078 30.2691C18.7501 30.3044 18.6925 30.3397 18.6331 30.3761C18.5713 30.4137 18.5095 30.4513 18.4458 30.49C18.3804 30.53 18.3151 30.57 18.2498 30.6099C18.114 30.693 17.9782 30.776 17.8424 30.8589C17.5875 31.0146 17.3332 31.1715 17.0789 31.3283C16.4935 31.6892 15.9072 32.0484 15.3192 32.4051C15.0933 32.5422 14.8676 32.6796 14.6438 32.8201C14.5926 32.8522 14.5926 32.8522 14.5404 32.8848C14.4546 32.9387 14.3691 32.993 14.2835 33.0472C14.0531 33.176 14.0531 33.176 13.9216 33.1799C13.7961 33.0923 13.7961 33.0923 13.661 32.9616C13.6119 32.9151 13.5628 32.8685 13.5123 32.8206C13.436 32.7475 13.436 32.7475 13.3582 32.6729C13.2576 32.5822 13.1567 32.4918 13.0554 32.4018C12.8885 32.2525 12.7267 32.1003 12.5696 31.9406C12.6435 31.719 12.7297 31.6933 12.9289 31.5753C12.9758 31.5473 12.9758 31.5473 13.0236 31.5186C13.0913 31.4782 13.1591 31.4379 13.2269 31.3979C13.3712 31.3128 13.5149 31.2267 13.6586 31.1407C13.7323 31.0965 13.806 31.0524 13.8798 31.0083C14.2254 30.8016 14.5667 30.5885 14.9074 30.3739C15.3697 30.0832 15.8347 29.7976 16.3048 29.5198C16.4994 29.4044 16.6917 29.2887 16.8775 29.1596C16.9314 29.1223 16.9854 29.085 17.041 29.0465C17.0844 29.0147 17.1278 28.9829 17.1726 28.9501C17.3015 28.8986 17.3015 28.8986 17.4507 28.9288Z" fill="#46D19D"/>
<path d="M139.012 5.07697C139.658 5.51533 140.063 6.0659 140.3 6.8092C140.426 7.47453 140.352 8.06969 140.05 8.67522C140.026 8.72562 140.001 8.77601 139.976 8.82793C139.574 9.57317 138.91 9.92337 138.133 10.1775C137.347 10.3108 136.615 10.1287 135.962 9.67997C135.441 9.28636 135.03 8.71385 134.89 8.06656C134.777 7.14905 134.909 6.37936 135.487 5.63326C136.364 4.64197 137.88 4.40706 139.012 5.07697ZM135.882 6.02759C135.445 6.56348 135.315 7.08748 135.375 7.7739C135.478 8.40893 135.841 8.93858 136.356 9.31402C136.926 9.68096 137.548 9.73422 138.206 9.59371C138.772 9.40611 139.273 9.01315 139.56 8.48532C139.807 7.94418 139.88 7.28546 139.705 6.7071C139.444 6.0684 138.998 5.65068 138.388 5.34852C137.446 4.99109 136.536 5.31404 135.882 6.02759Z" fill="#2D2D2D"/>
<path d="M97.5754 34.3066C98.9511 34.3066 100.327 34.3066 101.744 34.3066C101.744 34.604 101.744 34.9015 101.744 35.2079C101.242 35.2079 100.74 35.2079 100.223 35.2079C100.223 36.4906 100.223 37.7733 100.223 39.0949C99.8513 39.0949 99.4795 39.0949 99.0964 39.0949C99.0964 37.8122 99.0964 36.5295 99.0964 35.2079C98.5945 35.2079 98.0926 35.2079 97.5754 35.2079C97.5754 34.9105 97.5754 34.613 97.5754 34.3066Z" fill="#2D3336"/>
<path d="M112.222 34.3066C112.594 34.3066 112.966 34.3066 113.349 34.3066C113.349 35.9053 113.349 37.504 113.349 39.1512C112.977 39.1512 112.605 39.1512 112.222 39.1512C112.222 37.5525 112.222 35.9537 112.222 34.3066Z" fill="#2A3033"/>
<path d="M136.67 6.19662C136.924 6.19197 137.177 6.18732 137.438 6.18254C137.517 6.18048 137.596 6.17843 137.678 6.17632C138.318 6.17063 138.318 6.17063 138.586 6.42195C138.63 6.45913 138.674 6.49631 138.72 6.53461C138.867 6.80632 138.852 7.07778 138.811 7.3796C138.695 7.61148 138.543 7.76226 138.36 7.94293C138.381 7.99449 138.401 8.04605 138.422 8.09917C138.448 8.16612 138.474 8.23307 138.501 8.30205C138.527 8.36871 138.554 8.43537 138.58 8.50406C138.642 8.67525 138.642 8.67525 138.642 8.78792C138.475 8.78792 138.307 8.78792 138.135 8.78792C137.987 8.50734 137.874 8.25034 137.797 7.94293C137.593 7.94293 137.388 7.94293 137.177 7.94293C137.177 8.22178 137.177 8.50062 137.177 8.78792C137.01 8.78792 136.843 8.78792 136.67 8.78792C136.67 7.93279 136.67 7.07766 136.67 6.19662Z" fill="#292929"/>
<path d="M108.279 37.1232C108.513 37.1193 108.748 37.1159 108.982 37.1139C109.062 37.1131 109.142 37.1119 109.221 37.1104C109.336 37.1084 109.451 37.1074 109.566 37.1067C109.635 37.1058 109.704 37.1049 109.775 37.104C109.991 37.1254 110.124 37.1781 110.307 37.2922C110.446 37.5007 110.437 37.6089 110.419 37.8555C110.391 37.9823 110.391 37.9823 110.307 38.0808C109.892 38.2888 109.496 38.2695 109.039 38.2604C108.93 38.2593 108.93 38.2593 108.817 38.2581C108.638 38.2561 108.458 38.2531 108.279 38.2498C108.279 37.878 108.279 37.5063 108.279 37.1232Z" fill="#FEFEFE"/>
<path d="M108.279 35.1516C108.487 35.1485 108.694 35.1463 108.902 35.1446C108.96 35.1436 109.019 35.1427 109.079 35.1417C109.456 35.1393 109.787 35.1381 110.106 35.3593C110.232 35.5456 110.225 35.6636 110.194 35.8839C110.11 36.0487 110.044 36.1391 109.866 36.202C109.52 36.2799 109.192 36.2916 108.839 36.2853C108.654 36.283 108.469 36.2806 108.279 36.2782C108.279 35.9065 108.279 35.5347 108.279 35.1516Z" fill="#FBFBFB"/>
<path d="M89.6325 35.4896C89.6697 35.4896 89.7069 35.4896 89.7452 35.4896C89.8417 35.7201 89.938 35.9506 90.034 36.1813C90.0667 36.2598 90.0995 36.3383 90.1324 36.4167C90.1795 36.5294 90.2265 36.6421 90.2733 36.7548C90.3158 36.8566 90.3158 36.8566 90.3591 36.9605C90.4212 37.1232 90.4212 37.1232 90.4212 37.2359C89.9379 37.2359 89.4545 37.2359 88.9565 37.2359C89.1467 36.6655 89.1467 36.6655 89.2529 36.4083C89.2753 36.354 89.2976 36.2997 89.3206 36.2438C89.3434 36.1889 89.3661 36.1341 89.3896 36.0775C89.413 36.0207 89.4364 35.9639 89.4606 35.9053C89.5177 35.7667 89.5751 35.6281 89.6325 35.4896Z" fill="#F7F7F7"/>
<path d="M103.829 35.4896C103.866 35.4896 103.903 35.4896 103.941 35.4896C104.038 35.7201 104.134 35.9506 104.23 36.1813C104.263 36.2598 104.296 36.3383 104.328 36.4167C104.376 36.5294 104.423 36.6421 104.469 36.7548C104.512 36.8566 104.512 36.8566 104.555 36.9605C104.617 37.1232 104.617 37.1232 104.617 37.2359C104.134 37.2359 103.651 37.2359 103.153 37.2359C103.343 36.6021 103.343 36.6021 103.449 36.3588C103.471 36.3072 103.494 36.2556 103.517 36.2025C103.539 36.1508 103.562 36.0991 103.586 36.0458C103.609 35.992 103.632 35.9381 103.657 35.8826C103.714 35.7514 103.771 35.6204 103.829 35.4896Z" fill="#F7F7F8"/>
<path d="M137.177 6.70354C137.323 6.69745 137.468 6.69299 137.614 6.68946C137.655 6.68757 137.696 6.68568 137.739 6.68374C137.939 6.6801 138.055 6.68683 138.221 6.80432C138.304 6.92887 138.304 6.92887 138.304 7.13308C138.248 7.3232 138.248 7.3232 138.159 7.39097C137.968 7.45374 137.784 7.44778 137.586 7.44291C137.547 7.4424 137.507 7.44189 137.467 7.44137C137.37 7.44004 137.274 7.43802 137.177 7.43586C137.177 7.1942 137.177 6.95253 137.177 6.70354Z" fill="#F6F6F6"/>
<defs>
<linearGradient id="paint0_linear_69_270" x1="0" y1="0" x2="47.6833" y2="42.4954" gradientUnits="userSpaceOnUse">
<stop stop-color="#007E72"/>
<stop offset="0.500371" stop-color="#4DE4A7"/>
<stop offset="1" stop-color="#95FCD2"/>
</linearGradient>
</defs>
</svg>
