<svg width="313" height="315" viewBox="0 0 313 315" fill="none" xmlns="http://www.w3.org/2000/svg">
    <path
        d="M284.778 59.8014C295.809 75.9127 300.173 96.4499 298.308 115.684C297.388 124.573 295.445 133.188 291.627 141.301C288.116 148.948 282.389 156.001 276.55 162.11C273.761 165.017 270.677 167.662 267.638 170.137C263.689 173.282 259.741 176.426 255.542 179.138C247.408 184.267 237.526 186.37 228.055 186.938C218.027 187.54 207.944 186.3 198.261 184.254C187.554 181.933 176.565 178.623 166.714 173.791C156.567 168.697 147.755 160.671 144.13 149.651C141.038 140.052 143.097 129.64 150.325 122.441C156.812 115.958 166.287 112.649 175.279 112.501C185.17 112.41 194.306 116.503 201.426 123.344C216.381 137.766 221.162 161.521 219.285 181.482C218.34 191.827 215.508 202.396 209.836 211.291C203.64 220.777 194.582 227.303 183.778 230.803C172.2 234.461 159.728 235.321 147.812 236.148C134.953 237.088 122.061 237.471 109.226 236.955C83.6813 236.14 58.0942 232.755 33.1468 226.984C26.9639 225.51 20.9974 223.912 14.9059 222.097C9.49631 220.465 11.7803 211.941 17.1898 213.573C62.9444 226.929 111.12 231.25 158.465 226.395C168.801 225.328 179.909 224.102 189.113 219.077C197.235 214.675 203.053 207.281 206.406 198.861C209.895 189.929 211.214 180.233 210.816 170.808C210.498 161.77 208.815 152.366 205.016 144.039C201.343 135.929 195.815 128.601 187.839 124.271C181.306 120.694 172.916 120.638 165.729 122.915C158.882 125.282 153.192 130.153 151.705 137.063C149.933 145.724 155.141 154.245 161.512 159.79C169.655 166.905 181.031 170.136 191.168 173.218C199.476 175.626 208.183 177.228 216.947 177.932C225.587 178.42 234.455 178.056 242.848 175.371C250.855 172.766 257.501 167.056 264.01 161.856C270.087 156.907 275.153 150.956 279.629 144.481C283.968 138.518 286.169 132.347 287.917 125.141C291.654 109.15 290.288 91.0606 283.611 75.7503C281.797 71.6099 279.675 67.9353 277.213 64.1693C275.919 62.1782 276.866 59.3258 278.811 58.2026C280.973 56.9546 283.484 57.8103 284.778 59.8014Z"
        fill="white" />
    <path
        d="M102.231 192.143C80.7168 196.062 59.6437 201.744 38.9328 208.802C33.8943 210.558 28.6397 212.439 23.7261 214.411C21.872 215.193 19.5066 215.838 17.8565 217.223C16.6843 218.188 16.934 218.621 17.8989 219.793C19.2382 221.613 20.8394 223.139 22.4406 224.664C24.2913 226.622 26.3582 228.455 28.4251 230.287C32.218 233.862 36.2727 237.141 40.5436 240.295C50.0168 247.218 60.2756 253.256 70.8541 258.101C72.9789 259.035 73.5662 262.299 72.3361 264.162C71.0147 266.366 68.5245 266.795 66.2749 265.644C55.8668 260.845 45.9033 255.069 36.6005 248.192C31.8639 244.73 27.173 241.098 22.9144 237.216C18.951 233.596 14.6467 229.884 11.3775 225.719C7.68822 221.077 7.0586 215.244 11.4975 210.952C15.629 207.125 21.9064 205.518 26.9905 203.592C38.1482 199.456 49.5555 195.752 60.9962 192.605C73.813 189.096 86.7089 185.974 99.763 183.625C102.083 183.15 104.503 184.346 105.148 186.712C106.009 188.953 104.505 191.838 102.231 192.143Z"
        fill="white" />
</svg>