<svg width="330" height="330" viewBox="0 0 330 330" fill="none" xmlns="http://www.w3.org/2000/svg">
    <path
        d="M4.78589 111.779C26.5263 94.8428 52.8311 84.6332 80.3369 82.8315C108.203 80.9097 136.43 88.2365 160.092 102.77C181.952 116.223 203.693 137.483 208.257 163.908C210.419 176.64 208.257 189.612 201.651 200.782C195.285 211.472 185.556 220.241 174.265 225.526C150.483 236.576 122.016 231.171 101.237 216.157C90.6666 208.47 80.8174 198.38 77.0939 185.528C73.01 171.595 79.1358 157.782 86.7029 146.371C100.996 124.871 123.578 109.016 148.561 102.53C173.905 95.9238 200.81 100.008 223.632 112.74C246.093 125.351 263.629 145.771 271.557 170.274C279.244 193.816 277.923 220.121 268.674 243.062C266.512 248.587 263.629 253.872 260.506 258.917C257.624 263.481 250.177 259.397 253.179 254.713C265.431 235.735 270.356 212.313 267.473 189.972C264.47 166.79 252.939 145.891 235.042 130.877C217.266 115.742 193.844 107.214 170.422 108.055C147 108.896 124.058 119.106 107.122 135.321C98.7142 143.488 91.1471 153.458 86.823 164.268C84.661 170.033 83.5799 176.159 85.0213 182.165C86.4627 187.69 89.3454 192.735 93.0689 197.179C107.843 214.836 132.466 225.766 155.407 222.523C177.268 219.4 197.207 202.104 200.33 179.763C203.693 155.74 186.517 133.759 168.98 119.586C149.162 103.371 124.058 93.4014 98.5941 91.4796C73.3704 89.5578 47.7863 95.4433 25.6855 107.935C20.5207 110.938 15.3558 114.181 10.6714 117.904C8.86973 119.226 6.46748 119.706 4.66579 117.904C3.34454 116.343 3.10432 113.22 4.78589 111.779Z"
        fill="white" />
    <path
        d="M279.124 262.16C274.68 263.241 270.115 264.202 265.791 264.923C263.389 265.403 260.987 265.643 258.584 265.883C256.302 266.244 254.02 266.364 251.858 265.403C246.813 263.241 247.054 256.515 246.453 251.83C245.853 247.146 245.612 242.582 245.492 237.897C245.492 232.372 253.9 232.372 253.9 237.897C253.9 241.741 254.14 245.584 254.501 249.308C254.621 251.11 254.981 252.911 255.101 254.713C255.221 255.554 255.341 256.635 255.462 257.476C255.462 257.716 255.582 258.076 255.582 258.316C255.462 258.196 255.341 258.076 255.341 257.836C255.101 257.596 254.861 257.596 254.621 257.355C254.981 257.476 255.221 257.476 254.981 257.476C257.984 256.875 261.828 256.635 265.191 256.154C269.034 255.434 272.878 254.713 276.722 253.752C282.247 252.791 284.409 260.959 279.124 262.16Z"
        fill="white" />
</svg>