<svg width="292" height="294" viewBox="0 0 292 294" fill="none" xmlns="http://www.w3.org/2000/svg">
<path d="M265.657 56.2073C275.948 71.2369 280.019 90.3952 278.279 108.337C277.421 116.63 275.608 124.667 272.046 132.235C268.771 139.368 263.429 145.948 257.982 151.647C255.38 154.359 252.503 156.826 249.668 159.135C245.985 162.068 242.301 165.002 238.385 167.532C230.796 172.316 221.578 174.278 212.743 174.808C203.388 175.37 193.983 174.213 184.949 172.304C174.961 170.139 164.71 167.051 155.52 162.543C146.055 157.791 137.834 150.305 134.453 140.024C131.568 131.07 133.489 121.357 140.231 114.642C146.284 108.593 155.122 105.507 163.511 105.368C172.738 105.284 181.26 109.102 187.902 115.483C201.853 128.937 206.313 151.097 204.562 169.718C203.68 179.368 201.038 189.228 195.747 197.526C189.967 206.374 181.518 212.462 171.439 215.727C160.638 219.14 149.003 219.943 137.888 220.714C125.892 221.591 113.865 221.947 101.892 221.467C78.0627 220.706 54.1936 217.549 30.9211 212.165C25.1534 210.79 19.5875 209.299 13.905 207.606C8.85862 206.083 10.9892 198.132 16.0356 199.654C58.7181 212.114 103.659 216.145 147.825 211.616C157.467 210.62 167.83 209.476 176.415 204.789C183.992 200.683 189.42 193.785 192.547 185.93C195.803 177.598 197.033 168.553 196.662 159.761C196.364 151.329 194.795 142.557 191.251 134.789C187.824 127.223 182.667 120.387 175.227 116.348C169.133 113.011 161.306 112.959 154.601 115.083C148.214 117.292 142.906 121.835 141.52 128.282C139.866 136.361 144.724 144.31 150.668 149.482C158.264 156.12 168.876 159.134 178.333 162.009C186.083 164.256 194.205 165.75 202.381 166.407C210.44 166.862 218.713 166.522 226.543 164.018C234.012 161.587 240.212 156.26 246.284 151.41C251.953 146.793 256.679 141.241 260.854 135.201C264.901 129.638 266.955 123.882 268.586 117.16C272.072 102.242 270.798 85.3678 264.569 71.0854C262.876 67.223 260.897 63.7951 258.6 60.2819C257.393 58.4245 258.277 55.7636 260.091 54.7159C262.108 53.5517 264.451 54.3499 265.657 56.2073Z" fill="url(#paint0_linear_49_1278)"/>
<path d="M95.3673 179.662C75.2974 183.318 55.6392 188.619 36.3188 195.203C31.6187 196.841 26.7169 198.596 22.1331 200.435C20.4036 201.165 18.1969 201.767 16.6576 203.059C15.5642 203.959 15.797 204.362 16.6972 205.456C17.9466 207.154 19.4403 208.577 20.9339 210C22.6604 211.826 24.5886 213.536 26.5167 215.246C30.0549 218.58 33.8374 221.639 37.8215 224.582C46.6587 231.04 56.2286 236.673 66.0969 241.192C68.079 242.064 68.6269 245.108 67.4794 246.846C66.2467 248.902 63.9237 249.302 61.8251 248.229C52.1159 243.752 42.8213 238.364 34.1432 231.948C29.7246 228.719 25.3486 225.33 21.3759 221.709C17.6787 218.332 13.6634 214.87 10.6137 210.985C7.17208 206.654 6.58473 201.212 10.7256 197.208C14.5797 193.639 20.4356 192.14 25.1784 190.343C35.5869 186.484 46.2283 183.029 56.9009 180.093C68.8571 176.82 80.8872 173.907 93.0648 171.716C95.2289 171.273 97.4864 172.389 98.0883 174.596C98.8918 176.686 97.4887 179.378 95.3673 179.662Z" fill="url(#paint1_linear_49_1278)"/>
<defs>
<linearGradient id="paint0_linear_49_1278" x1="65.106" y1="1.25439" x2="209.09" y2="281.702" gradientUnits="userSpaceOnUse">
<stop stop-color="#007E72"/>
<stop offset="0.500371" stop-color="#4DE4A7"/>
<stop offset="1" stop-color="#95FCD2"/>
</linearGradient>
<linearGradient id="paint1_linear_49_1278" x1="21.3811" y1="151.997" x2="80.29" y2="251.229" gradientUnits="userSpaceOnUse">
<stop stop-color="#007E72"/>
<stop offset="0.500371" stop-color="#4DE4A7"/>
<stop offset="1" stop-color="#95FCD2"/>
</linearGradient>
</defs>
</svg>
