<svg width="261" height="335" viewBox="0 0 261 335" fill="none" xmlns="http://www.w3.org/2000/svg">
<g opacity="0.5">
<path fill-rule="evenodd" clip-rule="evenodd" d="M56.6955 149.518C65.309 146.849 71.1031 148.232 77.3815 154.165C76.6491 150.891 76.6095 147.911 77.2812 145.04C78.2889 140.735 80.7902 137.008 85.0371 133.161C80.7879 133.974 76.9542 133.883 73.3831 132.733C69.2592 131.403 65.7256 128.818 62.304 124.69C64.5008 134.581 63.3143 141.997 56.6955 149.518ZM97.5107 185.912C96.3526 186.58 94.8608 186.259 94.1041 185.144C93.8535 184.779 93.6093 184.416 93.3665 184.056L93.3398 184.016L91.0973 180.709C79.5717 163.697 73.8162 155.202 66.4986 153.526C59.1997 151.854 50.3465 156.965 32.6628 167.175C31.4288 167.887 29.8604 167.474 29.154 166.251C28.4477 165.027 28.8742 163.462 30.1082 162.75C65.3577 142.399 62.9642 136.521 47.3896 98.275L47.3893 98.2743L44.9783 92.3359C44.4533 91.0402 45.0326 89.5494 46.371 89.0127C47.6683 88.4613 49.16 89.0455 49.7219 90.3229C59.9 113.517 66.2796 125.046 75.0005 127.861C82.2683 130.205 92.068 126.977 111.158 115.956C112.392 115.243 113.96 115.657 114.667 116.88C115.373 118.103 114.946 119.668 113.712 120.381C95.4461 130.927 84.2157 137.927 82.2887 146.163C80.5006 153.821 86.0267 164.011 97.6053 181.128L98.3671 182.252C98.4035 182.305 98.4377 182.359 98.4683 182.412C99.1325 183.562 98.7972 185.048 97.672 185.81C97.6188 185.846 97.5665 185.879 97.5107 185.912ZM144.32 193.12C171.852 181.206 185.352 184.819 203.111 205.971C198.765 195.119 197.421 186.036 199.353 177.751C201.91 166.774 209.734 157.601 223.931 147.153C210.748 151.685 199.591 152.8 189.651 149.585C178.308 145.921 169.17 137.17 159.581 121.704C169.985 153.375 168.545 172.067 144.32 193.12ZM236.641 258.097C235.484 258.765 233.993 258.441 233.238 257.328L232.916 256.856L232.909 256.845C232.525 256.28 232.144 255.719 231.766 255.161L227.114 248.297L227.113 248.296C223.888 243.534 220.878 239.09 218.043 234.957C215.795 236.221 213.326 237.646 210.596 239.223C209.373 239.929 207.809 239.512 207.102 238.286C206.396 237.064 206.815 235.498 208.038 234.792C210.614 233.305 212.941 231.913 215.032 230.588C179.683 179.638 171.843 181.111 104.69 219.882C103.457 220.593 101.891 220.179 101.184 218.956C100.479 217.735 100.903 216.169 102.135 215.458C175.836 172.907 170.117 158.864 138.365 80.9216L137.6 79.0425C136.261 75.7525 134.877 72.3543 133.455 68.8415C132.929 67.5496 133.527 66.054 134.845 65.5206C136.14 64.9703 137.63 65.555 138.192 66.832C159.246 114.784 172.559 138.67 191.262 144.718C206.87 149.763 227.388 143.143 266.971 120.29C268.201 119.58 269.771 119.995 270.476 121.216C271.182 122.439 270.755 124.004 269.525 124.714C231.745 146.526 208.507 161.054 204.355 178.877C201.498 191.131 207.045 205.985 219.893 227.317C235.457 216.049 232.329 208.389 221.773 182.539L221.769 182.528L219.78 177.651C219.253 176.354 219.835 174.875 221.152 174.333C222.441 173.787 223.929 174.378 224.49 175.658C232.82 194.582 238.009 203.99 244.974 206.271C250.773 208.169 258.668 205.561 274.097 196.653C275.283 195.968 276.791 196.341 277.527 197.482C277.538 197.499 277.55 197.517 277.561 197.536C277.571 197.554 277.582 197.572 277.592 197.589C278.299 198.814 277.88 200.376 276.655 201.084C261.875 209.617 252.79 215.275 251.283 221.844C249.888 227.927 254.612 236.564 263.868 250.263L264.457 251.13C264.494 251.183 264.528 251.237 264.559 251.29C265.224 252.442 264.893 253.927 263.779 254.683C263.726 254.719 263.672 254.753 263.619 254.784C262.466 255.449 260.983 255.121 260.226 254.005C260.015 253.695 259.805 253.388 259.6 253.084L257.754 250.357C248.384 236.507 243.719 229.61 237.789 228.259C233.926 227.378 229.528 228.85 222.943 232.286C226.754 238.39 231.105 245 235.972 252.195L237.493 254.438C237.531 254.493 237.563 254.545 237.594 254.598C238.258 255.748 237.925 257.235 236.802 257.996C236.749 258.032 236.696 258.065 236.641 258.097ZM246.158 227.115C241.621 223.228 237.237 222.158 231.217 223.669C235.598 218.198 236.566 212.697 235.278 205.708C237.78 208.399 240.394 210.157 243.381 211.135C245.958 211.977 248.688 212.162 251.655 211.769C248.776 214.621 247.038 217.459 246.297 220.699C245.827 222.746 245.785 224.852 246.158 227.115Z" fill="url(#paint0_linear_49_1155)"/>
</g>
<defs>
<linearGradient id="paint0_linear_49_1155" x1="0" y1="115.754" x2="332.955" y2="189.868" gradientUnits="userSpaceOnUse">
<stop stop-color="#007E72"/>
<stop offset="0.500371" stop-color="#4DE4A7"/>
<stop offset="1" stop-color="#95FCD2"/>
</linearGradient>
</defs>
</svg>
