<svg width="181" height="335" viewBox="0 0 181 335" fill="none" xmlns="http://www.w3.org/2000/svg">
<g opacity="0.5">
<path fill-rule="evenodd" clip-rule="evenodd" d="M-89.3045 149.517C-80.691 146.848 -74.8969 148.232 -68.6185 154.164C-69.3509 150.891 -69.3905 147.911 -68.7188 145.039C-67.7111 140.735 -65.2098 137.008 -60.9629 133.16C-65.2121 133.974 -69.0458 133.883 -72.6169 132.733C-76.7408 131.403 -80.2744 128.817 -83.696 124.69C-81.4992 134.58 -82.6857 141.997 -89.3045 149.517ZM-48.4893 185.911C-49.6474 186.58 -51.1392 186.258 -51.8959 185.144C-52.1465 184.779 -52.3907 184.416 -52.6335 184.055L-52.6602 184.016L-54.9027 180.709C-66.4283 163.697 -72.1838 155.202 -79.5014 153.526C-86.8003 151.853 -95.6535 156.965 -113.337 167.175C-114.571 167.887 -116.14 167.474 -116.846 166.25C-117.552 165.027 -117.126 163.462 -115.892 162.75C-80.6423 142.398 -83.0358 136.521 -98.6104 98.2748L-98.6107 98.2741L-101.022 92.3357C-101.547 91.04 -100.967 89.5492 -99.629 89.0124C-98.3317 88.4611 -96.84 89.0453 -96.2781 90.3226C-86.1 113.517 -79.7204 125.046 -70.9995 127.861C-63.7317 130.204 -53.932 126.977 -34.8422 115.956C-33.6082 115.243 -32.0398 115.656 -31.3334 116.88C-30.6271 118.103 -31.0535 119.668 -32.2875 120.38C-50.5539 130.927 -61.7843 137.927 -63.7113 146.163C-65.4994 153.821 -59.9733 164.011 -48.3947 181.128L-47.6329 182.252C-47.5965 182.305 -47.5623 182.359 -47.5317 182.412C-46.8675 183.562 -47.2028 185.048 -48.328 185.809C-48.3812 185.846 -48.4335 185.879 -48.4893 185.911ZM-1.67972 193.119C25.8517 181.206 39.3523 184.819 57.1108 205.97C52.765 195.119 51.4214 186.035 53.3526 177.751C55.9104 166.774 63.7337 157.6 77.9313 147.153C64.7483 151.685 53.5914 152.8 43.6511 149.585C32.3077 145.921 23.1701 137.169 13.5813 121.704C23.9846 153.375 22.545 172.067 -1.67972 193.119ZM90.6407 258.097C89.4842 258.765 87.9926 258.44 87.2375 257.328L86.9164 256.855L86.909 256.845C86.5251 256.28 86.1438 255.718 85.7662 255.16L81.114 248.296L81.1134 248.296C77.8879 243.534 74.8776 239.09 72.0434 234.957C69.795 236.221 67.3265 237.646 64.5964 239.222C63.3734 239.928 61.8091 239.511 61.1017 238.286C60.3957 237.063 60.8153 235.498 62.0383 234.792C64.6145 233.304 66.9407 231.913 69.0316 230.588C33.6832 179.637 25.8429 181.111 -41.3104 219.881C-42.5426 220.593 -44.1095 220.179 -44.8157 218.956C-45.5207 217.735 -45.0968 216.169 -43.8646 215.458C29.8362 172.906 24.1172 158.863 -7.63513 80.9213L-8.39999 79.0422C-9.73923 75.7522 -11.1225 72.354 -12.5447 68.8413C-13.0707 67.5494 -12.4725 66.0538 -11.1554 65.5204C-9.85986 64.97 -8.36954 65.5548 -7.80754 66.8318C13.2461 114.783 26.5586 138.67 45.2618 144.718C60.8696 149.763 81.3885 143.143 120.971 120.29C122.201 119.58 123.771 119.994 124.476 121.215C125.182 122.439 124.755 124.004 123.525 124.714C85.7453 146.526 62.5073 161.054 58.355 178.876C55.4983 191.13 61.0455 205.984 73.8932 227.317C89.4569 216.049 86.3291 208.389 75.7731 182.539L75.7687 182.528L73.7798 177.65C73.2527 176.354 73.8345 174.875 75.1522 174.333C76.441 173.786 77.9286 174.378 78.4902 175.657C86.8197 194.582 92.0087 203.989 98.9744 206.271C104.773 208.169 112.668 205.561 128.097 196.653C129.283 195.968 130.791 196.341 131.527 197.481C131.538 197.499 131.55 197.517 131.561 197.535C131.571 197.553 131.582 197.571 131.592 197.589C132.299 198.814 131.88 200.376 130.655 201.083C115.875 209.617 106.79 215.275 105.283 221.843C103.888 227.927 108.612 236.563 117.868 250.262L118.457 251.13C118.494 251.183 118.528 251.237 118.559 251.29C119.224 252.442 118.893 253.927 117.779 254.683C117.726 254.719 117.672 254.753 117.619 254.784C116.466 255.449 114.983 255.121 114.226 254.004C114.015 253.695 113.805 253.388 113.6 253.084L111.754 250.357C102.384 236.507 97.7185 229.61 91.789 228.258C87.9264 227.378 83.5276 228.85 76.9426 232.286C80.7544 238.39 85.1052 245 89.9723 252.195L91.4928 254.438C91.5305 254.493 91.5634 254.544 91.594 254.597C92.2581 255.748 91.9252 257.235 90.8017 257.995C90.7486 258.032 90.6964 258.065 90.6407 258.097ZM100.158 227.115C95.621 223.227 91.2369 222.158 85.2173 223.669C89.5977 218.198 90.5664 212.697 89.2784 205.707C91.7803 208.398 94.3935 210.156 97.3807 211.135C99.9585 211.977 102.688 212.161 105.655 211.769C102.776 214.621 101.038 217.459 100.297 220.699C99.8272 222.745 99.7851 224.852 100.158 227.115Z" fill="url(#paint0_linear_24_531)"/>
</g>
<defs>
<linearGradient id="paint0_linear_24_531" x1="-146" y1="115.754" x2="186.955" y2="189.868" gradientUnits="userSpaceOnUse">
<stop stop-color="#007E72"/>
<stop offset="0.500371" stop-color="#4DE4A7"/>
<stop offset="1" stop-color="#95FCD2"/>
</linearGradient>
</defs>
</svg>
