<svg width="320" height="239" viewBox="0 0 320 239" fill="none" xmlns="http://www.w3.org/2000/svg">
<g opacity="0.5">
<path fill-rule="evenodd" clip-rule="evenodd" d="M56.6955 149.517C65.309 146.848 71.1031 148.231 77.3815 154.164C76.6491 150.891 76.6095 147.911 77.2812 145.039C78.2889 140.735 80.7902 137.007 85.0371 133.16C80.7879 133.973 76.9542 133.883 73.3831 132.732C69.2592 131.402 65.7256 128.817 62.304 124.689C64.5008 134.58 63.3143 141.997 56.6955 149.517ZM97.5107 185.911C96.3526 186.58 94.8608 186.258 94.1041 185.143C93.8535 184.779 93.6093 184.416 93.3665 184.055L93.3398 184.015L91.0973 180.708C79.5717 163.697 73.8162 155.202 66.4986 153.525C59.1997 151.853 50.3465 156.965 32.6628 167.174C31.4288 167.887 29.8604 167.474 29.154 166.25C28.4477 165.027 28.8742 163.462 30.1082 162.75C65.3577 142.398 62.9642 136.521 47.3896 98.2745L47.3893 98.2738L44.9783 92.3354C44.4533 91.0397 45.0326 89.5489 46.371 89.0122C47.6683 88.4609 49.16 89.0451 49.7219 90.3224C59.9 113.517 66.2796 125.046 75.0005 127.86C82.2683 130.204 92.068 126.977 111.158 115.955C112.392 115.243 113.96 115.656 114.667 116.88C115.373 118.103 114.946 119.668 113.712 120.38C95.4461 130.926 84.2157 137.926 82.2887 146.163C80.5006 153.821 86.0267 164.011 97.6053 181.128L98.3671 182.252C98.4035 182.304 98.4377 182.358 98.4683 182.411C99.1325 183.562 98.7972 185.047 97.672 185.809C97.6188 185.846 97.5665 185.879 97.5107 185.911ZM144.32 193.119C171.852 181.205 185.352 184.819 203.111 205.97C198.765 195.119 197.421 186.035 199.353 177.75C201.91 166.774 209.734 157.6 223.931 147.153C210.748 151.685 199.591 152.8 189.651 149.585C178.308 145.92 169.17 137.169 159.581 121.703C169.985 153.374 168.545 172.066 144.32 193.119ZM236.641 258.097C235.484 258.765 233.993 258.44 233.237 257.328L232.908 256.842L232.889 256.815C232.512 256.26 232.137 255.709 231.766 255.16L227.114 248.296L227.113 248.295C223.888 243.533 220.878 239.089 218.043 234.956C215.795 236.221 213.326 237.646 210.596 239.222C209.373 239.928 207.809 239.511 207.102 238.286C206.396 237.063 206.815 235.498 208.038 234.791C210.614 233.304 212.941 231.912 215.032 230.588C179.683 179.637 171.843 181.11 104.69 219.881C103.457 220.593 101.891 220.179 101.184 218.956C100.479 217.735 100.903 216.169 102.135 215.457C175.836 172.906 170.117 158.863 138.365 80.9211L137.6 79.0421C136.261 75.7521 134.878 72.3538 133.455 68.841C132.929 67.5491 133.527 66.0535 134.845 65.5201C136.14 64.9698 137.63 65.5545 138.192 66.8315C159.246 114.783 172.559 138.669 191.262 144.718C206.87 149.763 227.388 143.142 266.971 120.29C268.201 119.579 269.771 119.994 270.476 121.215C271.182 122.438 270.755 124.003 269.525 124.714C231.745 146.526 208.507 161.054 204.355 178.876C201.498 191.13 207.045 205.984 219.893 227.317C235.457 216.049 232.329 208.389 221.773 182.538L221.769 182.528L219.78 177.65C219.253 176.354 219.835 174.874 221.152 174.332C222.441 173.786 223.929 174.378 224.49 175.657C232.82 194.582 238.009 203.989 244.974 206.271C250.773 208.169 258.668 205.561 274.097 196.652C275.283 195.968 276.791 196.34 277.527 197.481C277.55 197.515 277.571 197.553 277.592 197.588C278.299 198.814 277.88 200.376 276.655 201.083C261.875 209.617 252.79 215.275 251.283 221.843C249.888 227.927 254.612 236.563 263.868 250.262L264.457 251.13C264.494 251.183 264.528 251.237 264.559 251.29C265.224 252.442 264.893 253.927 263.779 254.682C263.726 254.719 263.672 254.753 263.619 254.784C262.466 255.449 260.983 255.121 260.226 254.004C260.015 253.695 259.805 253.388 259.6 253.083L257.754 250.357C248.384 236.506 243.719 229.61 237.789 228.258C233.926 227.378 229.528 228.85 222.943 232.285C226.754 238.39 231.105 245 235.972 252.195L237.493 254.437C237.531 254.492 237.563 254.544 237.594 254.597C238.258 255.747 237.925 257.234 236.802 257.995C236.749 258.032 236.696 258.065 236.641 258.097ZM246.158 227.115C241.621 223.227 237.237 222.158 231.217 223.669C235.598 218.198 236.566 212.697 235.278 205.707C237.78 208.398 240.394 210.156 243.381 211.134C245.958 211.977 248.688 212.161 251.655 211.768C248.776 214.621 247.038 217.459 246.297 220.699C245.827 222.745 245.785 224.852 246.158 227.115Z" fill="white"/>
</g>
</svg>
